<?xml version="1.0" encoding="UTF-8" standalone="no"?>
<svg
   xmlns:dc="http://purl.org/dc/elements/1.1/"
   xmlns:cc="http://creativecommons.org/ns#"
   xmlns:rdf="http://www.w3.org/1999/02/22-rdf-syntax-ns#"
   xmlns:svg="http://www.w3.org/2000/svg"
   xmlns="http://www.w3.org/2000/svg"
   version="1.1"
   id="svg2"
   viewBox="0 0 128 128"
   height="128"
   width="128">
  <defs
     id="defs4">
    <marker
       id="DistanceX"
       orient="auto"
       refX="0"
       refY="0"
       style="overflow:visible">
      <path
         d="M 3,-3 -3,3 M 0,-5 0,5"
         style="stroke:#000000;stroke-width:0.5"
         id="path4178" />
    </marker>
    <pattern
       height="8"
       id="Hatch"
       patternUnits="userSpaceOnUse"
       width="8"
       x="0"
       y="0">
      <path
         d="M8 4 l-4,4"
         linecap="square"
         stroke="#000000"
         stroke-width="0.25"
         id="path4181" />
      <path
         d="M6 2 l-4,4"
         linecap="square"
         stroke="#000000"
         stroke-width="0.25"
         id="path4183" />
      <path
         d="M4 0 l-4,4"
         linecap="square"
         stroke="#000000"
         stroke-width="0.25"
         id="path4185" />
    </pattern>
    <symbol
       id="*Model_Space" />
    <symbol
       id="*Paper_Space" />
    <marker
       id="DistanceX-3"
       orient="auto"
       refX="0.0"
       refY="0.0"
       style="overflow:visible">
      <path
         d="M 3,-3 L -3,3 M 0,-5 L  0,5"
         style="stroke:#000000; stroke-width:0.5"
         id="path4349" />
    </marker>
    <pattern
       height="8"
       id="Hatch-6"
       patternUnits="userSpaceOnUse"
       width="8"
       x="0"
       y="0">
      <path
         d="M8 4 l-4,4"
         linecap="square"
         stroke="#000000"
         stroke-width="0.25"
         id="path4352" />
      <path
         d="M6 2 l-4,4"
         linecap="square"
         stroke="#000000"
         stroke-width="0.25"
         id="path4354" />
      <path
         d="M4 0 l-4,4"
         linecap="square"
         stroke="#000000"
         stroke-width="0.25"
         id="path4356" />
    </pattern>
    <symbol
       id="*Model_Space-7" />
    <symbol
       id="*Paper_Space-5" />
  </defs>
  <metadata
     id="metadata7">
    <rdf:RDF>
      <cc:Work
         rdf:about="">
        <dc:format>image/svg+xml</dc:format>
        <dc:type
           rdf:resource="http://purl.org/dc/dcmitype/StillImage" />
        <dc:title></dc:title>
      </cc:Work>
    </rdf:RDF>
  </metadata>
  <g
     transform="translate(0,-924.36216)"
     id="layer1">
    <g
       transform="translate(0,-32.000035)"
       id="g5169">
      <path
         d="m 122.58793,967.05746 a 5.3261753,5.3261753 0 0 1 5.32617,5.32618 l 0,74.56646 a 5.3261753,5.3261753 0 0 1 -5.32617,5.3262 l -117.1758595,0 a 5.3261753,5.3261753 0 0 1 -5.32617536,-5.3262 l 0,-74.56646 a 5.3261753,5.3261753 0 0 1 5.32617536,-5.32618 l 5.3261755,0 0,-1.06523 a 5.3261753,5.3261753 0 0 1 5.326175,-5.32618 l 6.39141,0 a 5.3261753,5.3261753 0 0 1 5.326175,5.32618 l 0,1.06523 14.913292,0 9.09235,-9.09235 a 5.3261753,5.3261753 0 0 1 3.766174,-1.56 l 38.197054,0 a 5.3261753,5.3261753 0 0 1 3.766176,1.56 l 9.092348,9.09235 15.97853,0 z"
         style="fill:#000000;fill-opacity:1;stroke:#000000;stroke-width:0.17179029;stroke-linecap:round"
         id="path4370" />
      <path
         d="m 113.05995,1009.6669 a 38.407599,38.407599 0 1 0 -76.815197,0 38.407599,38.407599 0 0 0 76.815197,0 z"
         style="fill:#ffffff;fill-opacity:1;stroke:#000000;stroke-width:0.17179029;stroke-linecap:round"
         id="path4362" />
      <path
         d="m 106.6094,1009.6669 a 31.957052,31.957052 0 1 0 -63.914102,0 31.957052,31.957052 0 0 0 63.914102,0 z"
         style="fill:#000000;fill-opacity:1;stroke:#000000;stroke-width:0.17179029;stroke-linecap:round"
         id="path4364" />
      <path
         d="m 22.455831,1041.6239 a 5.3261753,5.3261753 0 0 0 5.326175,-5.3262 l 0,-53.26171 a 5.3261753,5.3261753 0 0 0 -5.326175,-5.32618 l -6.39141,0 a 5.3261753,5.3261753 0 0 0 -5.326175,5.32618 l 0,53.26171 a 5.3261753,5.3261753 0 0 0 5.326175,5.3262 l 6.39141,0 z"
         style="fill:#ffffff;fill-opacity:1;stroke:#000000;stroke-width:0.17179029;stroke-linecap:round"
         id="path4368" />
      <path
         d="m 74.65235,985.84749 0,23.81941 -21.304702,10.6523 A 23.81938,23.81938 0 1 0 74.65235,985.84749 Z"
         style="fill:#ffffff;fill-opacity:1;stroke:#000000;stroke-width:0.17179029;stroke-linecap:round"
         id="path4366" />
    </g>
    <text
       id="text5195"
       y="1051.8448"
       x="1.9921737"
       style="font-style:normal;font-variant:normal;font-weight:normal;font-stretch:normal;font-size:36.53071976px;line-height:125%;font-family:Umpush;-inkscape-font-specification:Umpush;letter-spacing:0px;word-spacing:0px;fill:#000000;fill-opacity:1;stroke:none;stroke-width:1px;stroke-linecap:butt;stroke-linejoin:miter;stroke-opacity:1"
       xml:space="preserve"><tspan
         style="font-style:normal;font-variant:normal;font-weight:normal;font-stretch:normal;font-family:Terminus;-inkscape-font-specification:Terminus"
         y="1051.8448"
         x="1.9921737"
         id="tspan5197">TLCam</tspan></text>
  </g>
</svg>
