<?xml version="1.0" encoding="UTF-8" standalone="no"?>
<!-- Created with Inkscape (http://www.inkscape.org/) -->

<svg
   xmlns:dc="http://purl.org/dc/elements/1.1/"
   xmlns:cc="http://creativecommons.org/ns#"
   xmlns:rdf="http://www.w3.org/1999/02/22-rdf-syntax-ns#"
   xmlns:svg="http://www.w3.org/2000/svg"
   xmlns="http://www.w3.org/2000/svg"
   xmlns:sodipodi="http://sodipodi.sourceforge.net/DTD/sodipodi-0.dtd"
   xmlns:inkscape="http://www.inkscape.org/namespaces/inkscape"
   width="128"
   height="128"
   viewBox="0 0 128 128"
   id="svg2"
   version="1.1"
   inkscape:version="0.91 r13725"
   sodipodi:docname="TLCamRound.svg">
  <defs
     id="defs4">
    <marker
       style="overflow:visible"
       refY="0"
       refX="0"
       orient="auto"
       id="DistanceX">
      <path
         id="path4178"
         style="stroke:#000000;stroke-width:0.5"
         d="M 3,-3 -3,3 M 0,-5 0,5"
         inkscape:connector-curvature="0" />
    </marker>
    <pattern
       y="0"
       x="0"
       width="8"
       patternUnits="userSpaceOnUse"
       id="Hatch"
       height="8">
      <path
         id="path4181"
         stroke-width="0.25"
         stroke="#000000"
         linecap="square"
         d="M8 4 l-4,4" />
      <path
         id="path4183"
         stroke-width="0.25"
         stroke="#000000"
         linecap="square"
         d="M6 2 l-4,4" />
      <path
         id="path4185"
         stroke-width="0.25"
         stroke="#000000"
         linecap="square"
         d="M4 0 l-4,4" />
    </pattern>
    <symbol
       id="*Model_Space" />
    <symbol
       id="*Paper_Space" />
    <marker
       style="overflow:visible"
       refY="0.0"
       refX="0.0"
       orient="auto"
       id="DistanceX-3">
      <path
         id="path4349"
         style="stroke:#000000; stroke-width:0.5"
         d="M 3,-3 L -3,3 M 0,-5 L  0,5" />
    </marker>
    <pattern
       y="0"
       x="0"
       width="8"
       patternUnits="userSpaceOnUse"
       id="Hatch-6"
       height="8">
      <path
         id="path4352"
         stroke-width="0.25"
         stroke="#000000"
         linecap="square"
         d="M8 4 l-4,4" />
      <path
         id="path4354"
         stroke-width="0.25"
         stroke="#000000"
         linecap="square"
         d="M6 2 l-4,4" />
      <path
         id="path4356"
         stroke-width="0.25"
         stroke="#000000"
         linecap="square"
         d="M4 0 l-4,4" />
    </pattern>
    <symbol
       id="*Model_Space-7" />
    <symbol
       id="*Paper_Space-5" />
  </defs>
  <sodipodi:namedview
     id="base"
     pagecolor="#ffffff"
     bordercolor="#666666"
     borderopacity="1.0"
     inkscape:pageopacity="0.0"
     inkscape:pageshadow="2"
     inkscape:zoom="2.9964977"
     inkscape:cx="63.999999"
     inkscape:cy="52.853795"
     inkscape:document-units="px"
     inkscape:current-layer="layer1"
     showgrid="false"
     units="px"
     inkscape:window-width="1920"
     inkscape:window-height="1031"
     inkscape:window-x="0"
     inkscape:window-y="27"
     inkscape:window-maximized="1" />
  <metadata
     id="metadata7">
    <rdf:RDF>
      <cc:Work
         rdf:about="">
        <dc:format>image/svg+xml</dc:format>
        <dc:type
           rdf:resource="http://purl.org/dc/dcmitype/StillImage" />
        <dc:title></dc:title>
      </cc:Work>
    </rdf:RDF>
  </metadata>
  <g
     inkscape:label="Layer 1"
     inkscape:groupmode="layer"
     id="layer1"
     transform="translate(0,-924.36216)">
    <g
       id="g5169">
      <path
         id="path4370"
         style="fill:#000000;stroke:#000000;stroke-width:0.17179029;stroke-linecap:round;fill-opacity:1"
         d="m 122.58793,967.05746 a 5.3261753,5.3261753 0 0 1 5.32617,5.32618 l 0,74.56646 a 5.3261753,5.3261753 0 0 1 -5.32617,5.3262 l -117.1758595,0 a 5.3261753,5.3261753 0 0 1 -5.32617536,-5.3262 l 0,-74.56646 a 5.3261753,5.3261753 0 0 1 5.32617536,-5.32618 l 5.3261755,0 0,-1.06523 a 5.3261753,5.3261753 0 0 1 5.326175,-5.32618 l 6.39141,0 a 5.3261753,5.3261753 0 0 1 5.326175,5.32618 l 0,1.06523 14.913292,0 9.09235,-9.09235 a 5.3261753,5.3261753 0 0 1 3.766174,-1.56 l 38.197054,0 a 5.3261753,5.3261753 0 0 1 3.766176,1.56 l 9.092348,9.09235 15.97853,0 z"
         inkscape:connector-curvature="0" />
      <path
         id="path4362"
         style="fill:#ffffff;stroke:#000000;stroke-width:0.17179029;stroke-linecap:round;fill-opacity:1"
         d="m 113.05995,1009.6669 a 38.407599,38.407599 0 1 0 -76.815197,0 38.407599,38.407599 0 0 0 76.815197,0 z"
         inkscape:connector-curvature="0" />
      <path
         id="path4364"
         style="fill:#000000;stroke:#000000;stroke-width:0.17179029;stroke-linecap:round;fill-opacity:1"
         d="m 106.6094,1009.6669 a 31.957052,31.957052 0 1 0 -63.914102,0 31.957052,31.957052 0 0 0 63.914102,0 z"
         inkscape:connector-curvature="0" />
      <path
         id="path4368"
         style="fill:#ffffff;stroke:#000000;stroke-width:0.17179029;stroke-linecap:round;fill-opacity:1"
         d="m 22.455831,1041.6239 a 5.3261753,5.3261753 0 0 0 5.326175,-5.3262 l 0,-53.26171 a 5.3261753,5.3261753 0 0 0 -5.326175,-5.32618 l -6.39141,0 a 5.3261753,5.3261753 0 0 0 -5.326175,5.32618 l 0,53.26171 a 5.3261753,5.3261753 0 0 0 5.326175,5.3262 l 6.39141,0 z"
         inkscape:connector-curvature="0" />
      <path
         id="path4366"
         style="fill:#ffffff;stroke:#000000;stroke-width:0.17179029;stroke-linecap:round;fill-opacity:1"
         d="m 74.65235,985.84749 0,23.81941 -21.304702,10.6523 A 23.81938,23.81938 0 1 0 74.65235,985.84749 Z"
         inkscape:connector-curvature="0" />
    </g>
  </g>
</svg>
